# xmcd CD database file
#
# Track frame offsets:
#	150
#	10857
#	26407
#	41907
#	57177
#	70917
#	86217
#	100815
#	116652
#	129452
#	143562
#	157350
#	169387
#	182980
#	196157
#	208080
#	220500
#	236340
#	248660
#	261175
#	274030
#	287567
#	299322
#	323942
#
# Disc length: 4502 seconds
#
# Revision: 3
# Processed by: cddbd v1.5PL3 Copyright (c) Steve Scherf et al.
# Submitted via: CDex 1.51
#
DISCID=6a119418
DTITLE=Various Artist - Folk, Gospel and Blues: Will the Circle Be Unbroken Disc 1
DYEAR=2000
DGENRE=Blues
TTITLE0=Fisk Jubilee Singers_Ezekiel Saw De Wheel
TTITLE1=Mamie Smith_Crazy Blues
TTITLE2=Bessie Smith_Careless Love Blues
TTITLE3=Mississippi John Hurt_Frankie
TTITLE4=Blind Willie Johnson_Lord I Can't Just Keep From Crying
TTITLE5=Washington PhillipsWhat Are they Doing in Heaven Today
TTITLE6=Mississippi Sheiks_Sitting On Top of the World
TTITLE7=Leroy Carr_Blues Before Sunrise
TTITLE8=Thomas Dorsey_If You See My Saviour
TTITLE9=Blind Willie McTell_Broke Down Engine
TTITLE10=LeadbellyMister_Tom Hughes's Town
TTITLE11=Robert Johnson_Cross Road Blues
TTITLE12=Big Bil Broonzy_Key To the Highway
TTITLE13=Joshua White_Nine Foot Shovel
TTITLE14=Burl Ives_Cowboy's Lament
TTITLE15=Memphis Minnie_Me and My Chauffeur Blues
TTITLE16=Golden Gate Quartet_Swing Down Chariot
TTITLE17=Paul Robeson_Dere's A Man Goin' Round - I Know De Lord
TTITLE18=Big Joe Williams_Baby Please Don't Go
TTITLE19=Muddy Waters_Hard Day Blues
TTITLE20=Ira Tucker and The Dixie Hummingbirds_I'll Never Forget
TTITLE21=The Trumpeteers_I'll Fly Away
TTITLE22=Mahalia Jackson_I Will Move On Up a Little Higher
TTITLE23=The Brothers Four_Greenfields
EXTD=part of Sony Music 100 Years - Soundtrack For A Century J2K 65804 YEAR: 2000
EXTT0=Fisk Jubilee Singers (1920)
EXTT1=Mamie Smith and Her Jazz Hounds (1920)
EXTT2=Bessie Smith (1925)
EXTT3=Mississippi John Hurt (1928)
EXTT4=Blind Willie Johnson (1935)
EXTT5=Washington Phillips (1928)
EXTT6=The Mississippi Sheiks (1930)
EXTT7=Leroy Carr and Scrapper Blackwell (1934)
EXTT8=Thomas A. Dorsy (1932)
EXTT9=Blind Willie McTell (1933)
EXTT10=Leadbelly (1935)
EXTT11=Robert Johnson (1936)
EXTT12=Big Bill Broonzy (1941)
EXTT13=Joshua White (1940)
EXTT14=Burl Ives (1941)
EXTT15=Memphis Minnie (1941)
EXTT16=The Golden Gate Quartet (1946)
EXTT17=Paul Robeson (1947)
EXTT18=Big Joe Williams (1947)
EXTT19=Muddy Waters (1946)
EXTT20=Ira Tucker and The Dixie Hummingbirds (1951)
EXTT21=The (CBS) Trumpeteers (1952)
EXTT22=Mahalia Jackson (1954)
EXTT23=The Brothers Four (1959)
PLAYORDER=
